<svg width="13" height="17" viewBox="0 0 13 17" fill="none" xmlns="http://www.w3.org/2000/svg">
<path fill-rule="evenodd" clip-rule="evenodd" d="M6.25001 -6.10352e-05C4.20801 -6.10352e-05 2.53801 1.65294 2.50401 3.68694C2.50101 3.70794 2.50001 3.72894 2.50001 3.74994V4.42094C2.45762 4.42354 2.41247 4.42518 2.36707 4.42682H2.36706C2.29036 4.4296 2.21296 4.4324 2.14701 4.43994C1.56001 4.50594 1.04301 4.64994 0.662006 5.03094C0.280006 5.41194 0.136006 5.92894 0.0690063 6.51694C0.00578391 7.08019 0.00587605 7.75631 0.00599578 8.63495L0.00600635 8.75194V11.7839C0.00200635 11.8149 6.34798e-06 11.8459 6.34798e-06 11.8769L3.14173e-06 11.956C-5.15963e-05 12.8532 -9.35403e-05 13.5406 0.0650063 14.1119C0.131006 14.6999 0.275006 15.2159 0.657006 15.5969C1.03801 15.9789 1.55501 16.1219 2.14201 16.1879C2.7131 16.252 3.39928 16.252 4.29491 16.2519L4.37501 16.2519H4.38101H8.12501C8.13089 16.2519 8.13677 16.2517 8.14276 16.2515C8.14901 16.2512 8.15538 16.2509 8.16201 16.2509H8.20298C9.09706 16.251 9.78769 16.251 10.358 16.1869C10.945 16.1209 11.461 15.9779 11.843 15.5959C12.225 15.2149 12.369 14.6989 12.435 14.1109C12.5 13.5326 12.5 12.8339 12.5 11.9211V11.9211V11.8799V11.8759V8.75494V8.75394V8.75194L12.5 8.67289V8.6728C12.5001 7.77569 12.5001 7.08825 12.435 6.51694C12.369 5.92894 12.225 5.41194 11.843 5.03094C11.461 4.64994 10.945 4.50594 10.358 4.43994C10.293 4.43265 10.2172 4.42942 10.142 4.42621L10.1419 4.42621C10.0934 4.42414 10.0451 4.42208 10 4.41894V3.74994C10 3.72694 9.99901 3.70294 9.99601 3.67994C9.95801 1.64894 8.28901 -6.10352e-05 6.25001 -6.10352e-05ZM6.25001 1.24994C7.63701 1.24994 8.75001 2.36394 8.75001 3.74994V4.37994C8.65622 4.37994 8.5674 4.37923 8.47607 4.3785H8.47604C8.37943 4.37773 8.28003 4.37694 8.16901 4.37694L8.16636 4.37676C8.15235 4.37582 8.13912 4.37494 8.12501 4.37494H4.38101C4.36987 4.37494 4.35873 4.3758 4.34679 4.37672L4.34401 4.37694C4.23033 4.37694 4.12856 4.37773 4.02972 4.3785C3.93639 4.37923 3.84568 4.37994 3.75001 4.37994V3.74994C3.75001 2.36394 4.86301 1.24994 6.25001 1.24994ZM8.08101 5.62494H4.41201L4.41101 5.62594C4.40601 5.62594 4.40101 5.62619 4.39601 5.62644C4.39101 5.62669 4.38601 5.62694 4.38101 5.62694C3.44601 5.62694 2.75301 5.63094 2.28701 5.68294C1.82101 5.73494 1.63401 5.82694 1.54501 5.91494C1.45701 6.00294 1.36501 6.19094 1.31201 6.65694C1.26001 7.12294 1.25601 7.81594 1.25601 8.75194V11.8769C1.25601 11.9059 1.25501 11.9349 1.25101 11.9649C1.25101 12.8499 1.25501 13.5219 1.30601 13.9709C1.35901 14.4379 1.45101 14.6249 1.53901 14.7139C1.62801 14.8019 1.81501 14.8929 2.28101 14.9459C2.74701 14.9979 3.44001 15.0019 4.37501 15.0019H4.38101H8.09301C8.09851 15.0014 8.10376 15.0012 8.10901 15.0009C8.11426 15.0007 8.11951 15.0004 8.12501 14.9999C9.05901 14.9999 9.75201 14.9979 10.218 14.9459C10.684 14.8929 10.872 14.8009 10.961 14.7119C11.049 14.6239 11.141 14.4359 11.194 13.9699C11.246 13.5049 11.25 12.8129 11.25 11.8799V8.75494V8.75294V8.75194C11.25 7.81594 11.246 7.12294 11.194 6.65694C11.141 6.19094 11.049 6.00294 10.961 5.91494C10.872 5.82594 10.684 5.73494 10.218 5.68294C9.75201 5.63094 9.05901 5.62694 8.12501 5.62694C8.11089 5.62694 8.09766 5.62605 8.08365 5.62512L8.08101 5.62494Z" fill="#B9BAC8"/>
</svg>
